<svg id="svg" version="1.1" xmlns="http://www.w3.org/2000/svg" xmlns:xlink="http://www.w3.org/1999/xlink" width="400" height="400" viewBox="0, 0, 400,400"><g id="svgg"><path id="path0" d="M194.698 66.619 C 194.644 66.665,192.710 66.813,190.400 66.948 C 182.675 67.400,172.840 69.035,166.000 71.003 C 164.790 71.351,163.440 71.699,163.000 71.775 C 162.560 71.852,161.120 72.299,159.800 72.768 C 158.480 73.237,156.450 73.886,155.288 74.209 C 154.126 74.532,152.506 75.137,151.688 75.554 C 150.870 75.970,149.435 76.539,148.500 76.819 C 147.565 77.098,146.800 77.478,146.800 77.663 C 146.800 77.848,146.665 77.972,146.500 77.937 C 146.335 77.903,145.120 78.359,143.800 78.951 C 140.136 80.594,139.425 80.965,139.106 81.399 C 138.944 81.620,138.809 81.674,138.806 81.520 C 138.803 81.365,137.445 82.040,135.788 83.020 C 134.132 83.999,132.630 84.800,132.451 84.800 C 132.271 84.800,131.601 85.251,130.962 85.802 C 130.323 86.354,129.440 86.918,129.000 87.056 C 128.560 87.195,128.110 87.419,128.000 87.554 C 127.890 87.689,127.504 87.980,127.143 88.200 C 124.294 89.935,119.549 93.374,118.175 94.700 C 117.890 94.975,117.524 95.200,117.362 95.200 C 117.043 95.200,116.291 95.869,114.328 97.900 C 113.637 98.615,112.936 99.200,112.771 99.200 C 111.954 99.200,99.200 111.954,99.200 112.771 C 99.200 112.936,98.615 113.643,97.900 114.341 C 96.221 115.981,95.198 117.146,95.208 117.408 C 95.218 117.643,94.626 118.383,93.282 119.819 C 92.777 120.359,92.507 120.803,92.682 120.806 C 92.857 120.809,92.811 120.944,92.579 121.106 C 92.348 121.268,91.543 122.300,90.791 123.400 C 90.039 124.500,89.072 125.805,88.642 126.300 C 88.212 126.795,88.027 127.206,88.230 127.213 C 88.434 127.220,88.330 127.445,88.000 127.714 C 87.670 127.982,87.054 128.832,86.630 129.601 C 86.207 130.370,85.748 131.090,85.610 131.200 C 85.472 131.310,84.893 132.300,84.323 133.400 C 82.371 137.168,81.800 138.200,81.551 138.400 C 81.414 138.510,80.899 139.500,80.407 140.600 C 79.914 141.700,78.922 143.860,78.202 145.400 C 77.482 146.940,76.571 149.100,76.178 150.200 C 75.784 151.300,75.337 152.380,75.183 152.600 C 74.880 153.035,74.001 155.638,73.792 156.724 C 73.720 157.096,73.625 157.445,73.581 157.500 C 73.536 157.555,73.470 157.735,73.434 157.900 C 73.397 158.065,73.022 159.190,72.601 160.400 C 72.179 161.610,71.871 162.733,71.916 162.896 C 71.961 163.058,71.742 163.868,71.430 164.696 C 70.940 165.998,70.564 167.459,69.810 171.000 C 66.565 186.237,65.687 202.781,67.433 215.774 C 67.830 218.733,69.266 226.983,69.429 227.247 C 69.517 227.390,69.698 228.203,69.831 229.053 C 70.129 230.965,70.974 234.216,71.573 235.755 C 71.820 236.391,71.948 236.985,71.857 237.076 C 71.766 237.167,72.128 238.447,72.662 239.921 C 73.195 241.394,73.894 243.550,74.214 244.712 C 74.534 245.874,75.137 247.494,75.554 248.312 C 75.970 249.130,76.539 250.565,76.819 251.500 C 77.098 252.435,77.478 253.200,77.663 253.200 C 77.848 253.200,77.967 253.335,77.928 253.500 C 77.888 253.665,78.359 254.880,78.976 256.200 C 79.592 257.520,80.351 259.182,80.664 259.893 C 80.976 260.605,82.012 262.507,82.965 264.120 C 83.919 265.733,84.824 267.446,84.977 267.926 C 85.129 268.407,85.381 268.800,85.536 268.800 C 85.691 268.800,86.172 269.475,86.605 270.300 C 87.038 271.125,87.484 271.890,87.596 272.000 C 87.708 272.110,87.980 272.496,88.200 272.857 C 89.935 275.706,93.374 280.451,94.700 281.825 C 94.975 282.110,95.200 282.476,95.200 282.638 C 95.200 282.957,95.869 283.709,97.900 285.672 C 98.615 286.363,99.200 287.064,99.200 287.229 C 99.200 288.046,111.954 300.800,112.771 300.800 C 112.936 300.800,113.643 301.385,114.341 302.100 C 115.995 303.794,117.173 304.825,117.310 304.700 C 117.429 304.592,118.273 305.271,119.819 306.718 C 120.359 307.223,120.803 307.493,120.806 307.318 C 120.809 307.143,120.944 307.189,121.106 307.421 C 121.268 307.652,122.300 308.457,123.400 309.209 C 124.500 309.961,125.805 310.928,126.300 311.358 C 126.795 311.788,127.206 311.973,127.213 311.770 C 127.220 311.566,127.445 311.670,127.714 312.000 C 127.982 312.330,128.832 312.946,129.601 313.370 C 130.370 313.793,131.090 314.252,131.200 314.390 C 131.310 314.528,132.300 315.107,133.400 315.677 C 136.896 317.487,138.194 318.194,138.400 318.400 C 138.854 318.855,147.783 322.957,150.200 323.822 C 151.300 324.216,152.380 324.663,152.600 324.817 C 153.035 325.120,155.638 325.999,156.724 326.208 C 157.096 326.280,157.445 326.375,157.500 326.419 C 157.555 326.464,157.735 326.530,157.900 326.566 C 158.065 326.603,159.190 326.978,160.400 327.399 C 161.610 327.821,162.729 328.130,162.886 328.087 C 163.043 328.044,163.673 328.204,164.286 328.443 C 165.597 328.953,168.896 329.840,170.600 330.140 C 171.260 330.256,173.681 330.728,175.981 331.189 C 190.685 334.133,209.315 334.133,224.019 331.189 C 226.319 330.728,228.740 330.256,229.400 330.140 C 231.104 329.840,234.403 328.953,235.714 328.443 C 236.327 328.204,236.957 328.044,237.114 328.087 C 237.271 328.130,238.390 327.821,239.600 327.399 C 240.810 326.978,241.935 326.603,242.100 326.566 C 242.265 326.530,242.445 326.464,242.500 326.419 C 242.555 326.375,242.904 326.280,243.276 326.208 C 244.362 325.999,246.965 325.120,247.400 324.817 C 247.620 324.663,248.700 324.216,249.800 323.822 C 250.900 323.429,253.060 322.518,254.600 321.798 C 256.140 321.078,258.300 320.086,259.400 319.593 C 260.500 319.101,261.490 318.586,261.600 318.449 C 261.800 318.200,262.832 317.629,266.600 315.677 C 267.700 315.107,268.690 314.528,268.800 314.390 C 268.910 314.252,269.630 313.793,270.399 313.370 C 271.168 312.946,272.018 312.330,272.286 312.000 C 272.555 311.670,272.780 311.566,272.787 311.770 C 272.794 311.973,273.205 311.788,273.700 311.358 C 274.195 310.928,275.500 309.961,276.600 309.209 C 277.700 308.457,278.732 307.652,278.894 307.421 C 279.056 307.189,279.191 307.143,279.194 307.318 C 279.197 307.493,279.641 307.223,280.181 306.718 C 281.727 305.271,282.571 304.592,282.690 304.700 C 282.827 304.825,284.005 303.794,285.659 302.100 C 286.357 301.385,287.064 300.800,287.229 300.800 C 288.046 300.800,300.800 288.046,300.800 287.229 C 300.800 287.064,301.385 286.363,302.100 285.672 C 304.131 283.709,304.800 282.957,304.800 282.638 C 304.800 282.476,305.025 282.117,305.300 281.842 C 306.635 280.504,312.000 272.938,312.000 272.394 C 312.000 272.177,312.160 272.000,312.357 272.000 C 312.553 272.000,312.818 271.595,312.946 271.100 C 313.074 270.605,313.634 269.677,314.190 269.038 C 314.745 268.399,315.200 267.729,315.200 267.549 C 315.200 267.370,316.001 265.868,316.980 264.212 C 317.960 262.555,318.635 261.197,318.480 261.194 C 318.326 261.191,318.380 261.056,318.601 260.894 C 318.821 260.732,319.207 260.150,319.459 259.600 C 319.711 259.050,320.418 257.520,321.031 256.200 C 321.644 254.880,322.112 253.665,322.072 253.500 C 322.033 253.335,322.152 253.200,322.337 253.200 C 322.522 253.200,322.902 252.435,323.181 251.500 C 323.461 250.565,324.030 249.130,324.446 248.312 C 324.863 247.494,325.468 245.874,325.791 244.712 C 326.114 243.550,326.763 241.520,327.232 240.200 C 327.701 238.880,328.148 237.440,328.225 237.000 C 328.301 236.560,328.649 235.210,328.997 234.000 C 333.895 216.979,334.768 193.857,331.189 175.981 C 330.728 173.681,330.256 171.260,330.140 170.600 C 329.840 168.896,328.953 165.597,328.443 164.286 C 328.204 163.673,328.044 163.043,328.087 162.886 C 328.130 162.729,327.821 161.610,327.399 160.400 C 326.978 159.190,326.603 158.065,326.566 157.900 C 326.530 157.735,326.464 157.555,326.420 157.500 C 326.376 157.445,326.261 156.971,326.165 156.446 C 325.944 155.248,323.142 148.187,321.624 145.000 C 320.995 143.680,320.079 141.700,319.589 140.600 C 319.099 139.500,318.586 138.510,318.449 138.400 C 318.200 138.200,317.629 137.168,315.677 133.400 C 315.107 132.300,314.528 131.310,314.390 131.200 C 314.252 131.090,313.793 130.370,313.370 129.601 C 312.946 128.832,312.330 127.982,312.000 127.714 C 311.670 127.445,311.566 127.220,311.770 127.213 C 311.973 127.206,311.788 126.795,311.358 126.300 C 310.928 125.805,309.961 124.500,309.209 123.400 C 308.457 122.300,307.652 121.268,307.421 121.106 C 307.189 120.944,307.134 120.809,307.297 120.806 C 307.609 120.800,306.347 119.209,305.025 117.943 C 304.598 117.534,304.373 117.200,304.525 117.200 C 304.843 117.200,303.954 116.152,302.100 114.341 C 301.385 113.643,300.800 112.936,300.800 112.771 C 300.800 111.954,288.046 99.200,287.229 99.200 C 287.064 99.200,286.363 98.615,285.672 97.900 C 283.752 95.914,282.958 95.200,282.669 95.200 C 282.441 95.200,281.380 94.373,279.847 93.000 C 279.396 92.596,274.072 88.940,272.857 88.200 C 272.496 87.980,272.110 87.689,272.000 87.554 C 271.890 87.419,271.440 87.195,271.000 87.056 C 270.560 86.918,269.677 86.354,269.038 85.802 C 268.399 85.251,267.729 84.800,267.549 84.800 C 267.370 84.800,265.868 83.999,264.212 83.020 C 262.555 82.040,261.197 81.365,261.194 81.520 C 261.191 81.674,261.056 81.620,260.894 81.399 C 260.575 80.965,259.864 80.594,256.200 78.951 C 254.880 78.359,253.665 77.903,253.500 77.937 C 253.335 77.972,253.200 77.848,253.200 77.663 C 253.200 77.478,252.435 77.098,251.500 76.819 C 250.565 76.539,249.130 75.970,248.312 75.554 C 247.494 75.137,245.874 74.532,244.712 74.209 C 243.550 73.886,241.520 73.237,240.200 72.768 C 238.880 72.299,237.440 71.852,237.000 71.775 C 236.560 71.699,235.210 71.353,234.000 71.006 C 224.475 68.280,213.419 66.800,201.298 66.629 C 197.722 66.578,194.752 66.574,194.698 66.619 M212.000 75.327 C 212.550 75.431,214.800 75.731,217.000 75.996 C 219.200 76.261,221.090 76.532,221.200 76.599 C 221.310 76.666,222.120 76.830,223.000 76.963 C 224.630 77.209,225.816 77.435,227.600 77.841 C 228.150 77.966,229.230 78.210,230.000 78.383 C 230.770 78.556,231.895 78.896,232.500 79.139 C 233.105 79.382,233.600 79.504,233.600 79.412 C 233.600 79.319,234.628 79.597,235.884 80.029 C 237.141 80.461,238.536 80.891,238.984 80.984 C 240.069 81.208,244.887 83.004,245.993 83.596 C 246.476 83.854,247.348 84.152,247.932 84.258 C 248.515 84.364,249.279 84.709,249.628 85.025 C 249.977 85.341,250.491 85.600,250.770 85.600 C 251.048 85.600,252.234 86.125,253.404 86.768 C 254.574 87.410,255.611 87.856,255.709 87.758 C 255.806 87.660,256.114 87.855,256.392 88.190 C 256.670 88.526,257.191 88.804,257.549 88.809 C 257.907 88.814,258.650 89.170,259.200 89.600 C 259.750 90.030,260.329 90.386,260.486 90.391 C 260.842 90.402,266.784 93.995,267.600 94.693 C 267.930 94.976,268.299 95.160,268.419 95.103 C 268.540 95.046,269.845 95.948,271.319 97.107 C 272.794 98.265,274.000 99.113,274.000 98.991 C 274.000 98.764,274.698 99.292,275.919 100.441 C 276.294 100.793,276.891 101.243,277.246 101.441 C 278.141 101.938,284.344 107.447,288.200 111.169 C 290.939 113.812,297.944 121.646,298.559 122.754 C 298.757 123.109,299.207 123.706,299.559 124.081 C 300.712 125.305,301.236 126.000,301.006 126.000 C 300.883 126.000,301.526 126.942,302.436 128.093 C 303.346 129.245,304.246 130.595,304.435 131.093 C 304.625 131.592,304.965 132.000,305.190 132.000 C 305.416 132.000,305.557 132.135,305.505 132.300 C 305.453 132.465,305.963 133.410,306.639 134.400 C 307.314 135.390,308.296 137.010,308.821 138.000 C 309.345 138.990,310.033 140.115,310.349 140.500 C 310.665 140.885,310.794 141.200,310.635 141.200 C 310.476 141.200,310.718 141.723,311.173 142.362 C 311.628 143.001,312.000 143.710,312.000 143.937 C 312.000 144.165,312.540 145.335,313.200 146.537 C 313.860 147.740,314.400 148.952,314.400 149.230 C 314.400 149.509,314.659 150.023,314.975 150.372 C 315.291 150.721,315.635 151.479,315.739 152.055 C 315.844 152.632,316.203 153.631,316.536 154.277 C 317.054 155.279,319.335 161.763,319.816 163.600 C 319.902 163.930,320.439 165.910,321.010 168.000 C 322.159 172.205,322.369 173.027,322.595 174.200 C 323.044 176.524,324.304 184.846,324.686 188.000 C 325.081 191.271,325.098 208.192,324.709 211.400 C 324.549 212.720,324.229 215.420,323.999 217.400 C 323.768 219.380,323.486 221.301,323.373 221.668 C 323.259 222.035,323.108 222.665,323.036 223.068 C 322.587 225.588,322.370 226.716,322.164 227.600 C 322.036 228.150,321.790 229.230,321.617 230.000 C 321.444 230.770,321.104 231.895,320.861 232.500 C 320.618 233.105,320.496 233.600,320.588 233.600 C 320.681 233.600,320.403 234.628,319.971 235.884 C 319.539 237.141,319.109 238.536,319.016 238.984 C 318.792 240.069,316.996 244.887,316.404 245.993 C 316.146 246.476,315.848 247.348,315.742 247.932 C 315.636 248.515,315.291 249.279,314.975 249.628 C 314.659 249.977,314.400 250.491,314.400 250.770 C 314.400 251.048,313.875 252.234,313.232 253.404 C 312.590 254.574,312.144 255.611,312.242 255.709 C 312.340 255.806,312.145 256.114,311.810 256.392 C 311.474 256.670,311.196 257.191,311.191 257.549 C 311.186 257.907,310.830 258.650,310.400 259.200 C 309.970 259.750,309.614 260.329,309.609 260.486 C 309.598 260.842,306.005 266.784,305.307 267.600 C 305.024 267.930,304.776 268.380,304.755 268.600 C 304.733 268.820,303.832 270.125,302.751 271.500 C 301.671 272.875,300.925 274.005,301.093 274.012 C 301.262 274.019,301.085 274.208,300.700 274.432 C 300.315 274.656,300.000 275.101,300.000 275.420 C 300.000 275.739,299.825 276.000,299.610 276.000 C 299.396 276.000,298.951 276.495,298.622 277.100 C 298.293 277.705,297.164 279.133,296.112 280.273 C 295.060 281.414,293.210 283.465,292.000 284.831 C 290.790 286.197,289.080 288.004,288.200 288.845 C 283.804 293.050,278.143 298.075,277.257 298.559 C 276.896 298.757,276.294 299.207,275.919 299.559 C 274.695 300.712,274.000 301.236,274.000 301.006 C 274.000 300.883,273.058 301.526,271.907 302.436 C 270.755 303.346,269.405 304.246,268.907 304.435 C 268.408 304.625,268.000 304.965,268.000 305.190 C 268.000 305.416,267.865 305.557,267.700 305.505 C 267.535 305.453,266.590 305.963,265.600 306.639 C 264.610 307.314,262.990 308.296,262.000 308.821 C 261.010 309.345,259.885 310.033,259.500 310.349 C 259.115 310.665,258.800 310.794,258.800 310.635 C 258.800 310.476,258.277 310.718,257.638 311.173 C 256.999 311.628,256.324 311.997,256.138 311.994 C 255.832 311.989,253.082 313.278,249.100 315.292 C 248.275 315.710,247.600 315.946,247.600 315.817 C 247.600 315.689,246.910 315.936,246.066 316.366 C 244.781 317.022,238.467 319.275,236.400 319.816 C 236.070 319.902,234.090 320.439,232.000 321.010 C 227.795 322.159,226.973 322.369,225.800 322.595 C 223.476 323.044,215.154 324.304,212.000 324.686 C 208.631 325.093,191.369 325.093,188.000 324.686 C 185.414 324.373,178.709 323.384,176.800 323.034 C 176.250 322.933,175.260 322.760,174.600 322.649 C 173.128 322.402,172.752 322.308,168.000 321.010 C 165.910 320.439,163.930 319.902,163.600 319.816 C 161.533 319.275,155.219 317.022,153.934 316.366 C 153.090 315.936,152.400 315.689,152.400 315.817 C 152.400 315.946,151.725 315.710,150.900 315.292 C 146.918 313.278,144.168 311.989,143.862 311.994 C 143.676 311.997,143.001 311.628,142.362 311.173 C 141.723 310.718,141.200 310.476,141.200 310.635 C 141.200 310.794,140.885 310.665,140.500 310.349 C 140.115 310.033,138.990 309.345,138.000 308.821 C 137.010 308.296,135.390 307.314,134.400 306.639 C 133.410 305.963,132.465 305.453,132.300 305.505 C 132.135 305.557,132.000 305.416,132.000 305.190 C 132.000 304.965,131.592 304.625,131.093 304.435 C 130.595 304.246,129.245 303.346,128.093 302.436 C 126.942 301.526,126.000 300.883,126.000 301.006 C 126.000 301.236,125.305 300.712,124.081 299.559 C 123.706 299.207,123.104 298.757,122.743 298.559 C 121.857 298.075,116.196 293.050,111.800 288.845 C 110.920 288.004,109.210 286.193,108.000 284.821 C 106.790 283.450,105.608 282.119,105.374 281.864 C 104.423 280.828,101.348 277.172,100.600 276.188 C 100.160 275.609,99.562 274.880,99.271 274.568 C 98.981 274.256,98.849 274.000,98.978 274.000 C 99.108 274.000,98.329 272.875,97.249 271.500 C 96.168 270.125,95.249 268.820,95.206 268.600 C 95.164 268.380,94.358 267.030,93.417 265.600 C 92.476 264.170,91.216 262.100,90.616 261.000 C 90.017 259.900,89.363 258.829,89.163 258.620 C 88.963 258.411,88.800 257.938,88.800 257.569 C 88.800 257.200,88.526 256.670,88.190 256.392 C 87.855 256.114,87.660 255.806,87.758 255.709 C 87.856 255.611,87.410 254.574,86.768 253.404 C 86.125 252.234,85.600 251.048,85.600 250.770 C 85.600 250.491,85.341 249.977,85.025 249.628 C 84.709 249.279,84.364 248.515,84.258 247.932 C 84.152 247.348,83.854 246.476,83.596 245.993 C 83.033 244.940,81.224 240.112,80.987 239.031 C 80.895 238.608,80.477 237.168,80.059 235.831 C 79.279 233.341,78.661 231.124,78.152 229.000 C 77.994 228.340,77.840 227.710,77.809 227.600 C 77.778 227.490,77.607 226.590,77.429 225.600 C 76.899 222.651,76.823 222.246,76.603 221.200 C 76.399 220.226,75.865 216.255,75.286 211.400 C 74.901 208.170,74.921 191.250,75.314 188.000 C 75.627 185.414,76.616 178.709,76.966 176.800 C 77.067 176.250,77.240 175.260,77.351 174.600 C 77.598 173.128,77.692 172.752,78.990 168.000 C 79.561 165.910,80.098 163.930,80.184 163.600 C 80.725 161.533,82.978 155.219,83.634 153.934 C 84.064 153.090,84.311 152.400,84.183 152.400 C 84.054 152.400,84.290 151.725,84.708 150.900 C 86.928 146.512,88.011 144.148,88.006 143.700 C 88.003 143.425,88.166 143.200,88.368 143.200 C 88.571 143.200,88.852 142.672,88.994 142.028 C 89.136 141.383,89.510 140.641,89.826 140.379 C 90.142 140.117,90.400 139.750,90.400 139.565 C 90.400 139.088,94.092 133.028,94.482 132.866 C 94.660 132.792,94.703 132.567,94.579 132.366 C 94.455 132.165,94.548 132.000,94.786 132.000 C 95.025 132.000,95.375 131.592,95.565 131.093 C 95.754 130.595,96.654 129.245,97.564 128.093 C 98.474 126.942,99.112 126.000,98.981 126.000 C 98.850 126.000,98.981 125.744,99.271 125.432 C 99.562 125.120,100.160 124.391,100.600 123.812 C 101.348 122.828,104.423 119.172,105.374 118.136 C 105.608 117.881,106.790 116.550,108.000 115.179 C 110.768 112.041,113.205 109.694,119.399 104.200 C 120.887 102.880,122.531 101.569,123.052 101.287 C 123.573 101.005,124.000 100.600,124.000 100.387 C 124.000 100.174,124.261 100.000,124.580 100.000 C 124.899 100.000,125.344 99.685,125.568 99.300 C 125.792 98.915,125.981 98.738,125.988 98.907 C 125.995 99.075,127.162 98.300,128.582 97.184 C 130.003 96.068,131.257 95.210,131.369 95.277 C 131.482 95.345,131.895 95.126,132.287 94.790 C 133.186 94.021,139.130 90.403,139.514 90.391 C 139.671 90.386,140.250 90.030,140.800 89.600 C 141.350 89.170,142.093 88.814,142.451 88.809 C 142.809 88.804,143.330 88.526,143.608 88.190 C 143.886 87.855,144.194 87.660,144.291 87.758 C 144.389 87.856,145.426 87.410,146.596 86.768 C 147.766 86.125,148.952 85.600,149.230 85.600 C 149.509 85.600,150.023 85.341,150.372 85.025 C 150.721 84.709,151.485 84.364,152.068 84.258 C 152.652 84.152,153.524 83.854,154.007 83.596 C 155.113 83.004,159.931 81.208,161.016 80.984 C 161.464 80.891,162.859 80.461,164.116 80.029 C 165.372 79.597,166.400 79.319,166.400 79.412 C 166.400 79.504,166.895 79.382,167.500 79.139 C 168.105 78.896,169.230 78.556,170.000 78.383 C 170.770 78.210,171.850 77.966,172.400 77.841 C 173.939 77.491,175.267 77.235,176.800 76.993 C 177.570 76.871,178.470 76.695,178.800 76.601 C 179.475 76.409,184.963 75.710,188.600 75.352 C 189.920 75.222,191.077 75.043,191.171 74.953 C 191.397 74.739,210.710 75.085,212.000 75.327 M191.529 88.990 C 191.458 89.053,190.230 89.223,188.800 89.367 C 187.370 89.512,185.120 89.793,183.800 89.991 C 182.480 90.189,180.726 90.451,179.902 90.573 C 179.079 90.695,177.639 90.985,176.702 91.218 C 175.766 91.451,174.730 91.687,174.400 91.742 C 171.058 92.306,157.958 96.648,157.671 97.287 C 157.600 97.445,156.925 97.690,156.171 97.832 C 155.417 97.973,154.800 98.249,154.800 98.445 C 154.800 98.640,154.608 98.800,154.373 98.800 C 153.626 98.800,145.433 102.977,144.243 103.965 C 143.889 104.258,143.600 104.379,143.600 104.233 C 143.600 104.088,143.375 104.155,143.100 104.384 C 142.286 105.060,138.338 107.600,138.101 107.600 C 137.981 107.600,137.144 108.189,136.241 108.908 C 135.339 109.628,133.880 110.702,133.000 111.296 C 132.120 111.889,130.804 112.920,130.075 113.587 C 129.347 114.254,128.675 114.800,128.582 114.800 C 128.308 114.800,126.237 116.735,121.685 121.244 C 117.226 125.660,116.362 126.602,114.250 129.350 C 113.066 130.891,111.944 132.270,111.000 133.345 C 110.229 134.222,107.200 138.730,107.200 138.999 C 107.200 139.296,131.055 138.962,132.012 138.652 C 132.751 138.412,141.068 137.902,143.990 137.918 C 147.607 137.937,149.284 140.277,148.351 144.000 C 148.104 144.981,146.291 146.383,144.939 146.637 C 143.396 146.927,142.222 147.036,136.600 147.411 C 131.482 147.751,131.745 147.636,132.297 149.300 C 132.904 151.132,133.663 153.260,134.044 154.200 C 134.223 154.640,134.662 155.990,135.020 157.200 C 135.379 158.410,135.826 159.760,136.014 160.200 C 136.203 160.640,137.727 165.230,139.402 170.400 C 141.077 175.570,142.683 180.341,142.971 181.002 C 143.258 181.662,143.628 182.832,143.792 183.602 C 143.957 184.371,144.515 186.015,145.032 187.256 C 145.550 188.497,146.077 190.102,146.204 190.822 C 146.331 191.543,146.557 192.328,146.706 192.566 C 146.855 192.805,147.032 193.352,147.099 193.783 C 147.165 194.213,147.368 194.663,147.549 194.783 C 147.832 194.970,148.016 195.484,148.631 197.800 C 148.882 198.742,149.988 201.958,150.729 203.900 C 151.170 205.055,151.450 206.000,151.351 206.000 C 151.253 206.000,151.373 206.376,151.619 206.835 C 151.865 207.294,152.152 208.145,152.257 208.726 C 152.362 209.306,152.698 210.326,153.002 210.991 C 153.307 211.656,154.121 214.000,154.811 216.200 C 156.194 220.607,157.115 223.377,157.605 224.600 C 158.106 225.852,160.421 232.913,160.609 233.763 C 160.702 234.183,161.249 235.759,161.825 237.265 C 162.400 238.771,162.931 240.318,163.005 240.702 C 163.079 241.086,163.166 241.400,163.200 241.400 C 163.234 241.400,163.327 241.752,163.407 242.183 C 163.488 242.613,163.744 243.378,163.977 243.883 C 164.898 245.880,165.503 247.538,165.844 249.000 C 166.024 249.768,167.134 253.017,167.929 255.100 C 168.370 256.255,168.652 257.200,168.555 257.200 C 168.459 257.200,168.659 257.740,169.000 258.400 C 169.341 259.060,169.524 259.600,169.405 259.600 C 169.286 259.600,169.478 260.275,169.830 261.100 C 170.745 263.242,172.000 267.193,172.000 267.932 C 172.000 269.654,173.586 265.136,184.766 231.558 L 196.834 195.316 195.978 193.158 C 195.507 191.971,195.051 190.624,194.964 190.164 C 194.878 189.705,194.251 187.995,193.571 186.364 C 192.892 184.734,192.252 182.971,192.150 182.446 C 192.048 181.921,191.725 181.021,191.432 180.446 C 191.139 179.871,190.232 177.439,189.417 175.042 C 188.602 172.646,187.783 170.396,187.597 170.042 C 187.411 169.689,186.991 168.590,186.663 167.600 C 185.116 162.933,183.957 159.734,183.566 159.055 C 183.330 158.645,183.079 158.015,183.008 157.655 C 182.938 157.295,182.429 155.740,181.879 154.200 C 179.650 147.967,179.477 147.620,178.618 147.670 C 177.828 147.715,173.729 147.405,169.220 146.958 C 163.549 146.396,161.535 141.174,165.952 138.487 C 167.188 137.736,167.839 137.710,174.000 138.168 C 189.003 139.284,206.953 139.283,222.400 138.165 C 229.005 137.687,230.014 137.880,231.234 139.855 C 233.447 143.436,231.060 146.567,225.800 146.983 C 225.140 147.035,222.980 147.225,221.000 147.405 C 219.020 147.585,216.923 147.735,216.340 147.739 C 215.758 147.742,215.336 147.938,215.404 148.173 C 215.812 149.584,220.138 162.739,220.412 163.400 C 220.595 163.840,220.950 164.920,221.203 165.800 C 221.455 166.680,221.767 167.670,221.896 168.000 C 222.025 168.330,222.159 168.690,222.193 168.800 C 222.228 168.910,222.673 170.350,223.183 172.000 C 223.693 173.650,224.251 175.180,224.421 175.400 C 224.592 175.620,224.769 175.980,224.814 176.200 C 224.859 176.420,225.054 177.017,225.248 177.526 C 225.442 178.035,225.600 178.700,225.600 179.002 C 225.600 179.305,225.757 179.650,225.948 179.768 C 226.259 179.960,226.563 180.946,227.059 183.369 C 227.145 183.791,227.414 184.376,227.657 184.669 C 227.899 184.961,227.981 185.200,227.839 185.200 C 227.696 185.200,227.859 185.740,228.200 186.400 C 228.541 187.060,228.741 187.600,228.645 187.600 C 228.548 187.600,228.824 188.545,229.259 189.700 C 229.693 190.855,230.136 192.233,230.243 192.762 C 230.350 193.291,230.603 194.032,230.805 194.409 C 231.135 195.027,231.893 197.286,236.035 210.000 C 236.716 212.090,237.815 215.330,238.476 217.200 C 239.138 219.070,239.738 220.870,239.809 221.200 C 239.881 221.530,239.975 221.845,240.019 221.900 C 240.064 221.955,240.145 222.180,240.200 222.400 C 240.255 222.620,240.336 222.845,240.381 222.900 C 240.425 222.955,240.525 223.270,240.603 223.600 C 240.681 223.930,241.128 225.190,241.596 226.400 C 242.063 227.610,242.507 228.870,242.582 229.200 C 242.728 229.844,245.487 238.203,245.883 239.200 C 246.014 239.530,246.172 239.980,246.235 240.200 C 246.298 240.420,246.702 241.590,247.133 242.800 C 247.564 244.010,248.394 246.530,248.978 248.400 C 249.561 250.270,250.288 252.430,250.592 253.200 C 250.896 253.970,251.635 256.220,252.233 258.200 C 252.832 260.180,253.445 261.980,253.596 262.200 C 253.746 262.420,254.185 263.635,254.572 264.900 C 255.225 267.038,255.834 267.870,255.891 266.700 C 255.904 266.425,256.408 264.760,257.010 263.000 C 257.612 261.240,258.156 259.440,258.219 259.000 C 258.282 258.560,258.371 258.155,258.417 258.100 C 258.463 258.045,258.545 257.820,258.600 257.600 C 258.655 257.380,258.745 257.110,258.800 257.000 C 258.908 256.784,258.910 256.777,259.388 255.000 C 259.565 254.340,259.888 253.575,260.104 253.300 C 260.321 253.025,260.364 252.800,260.200 252.800 C 260.036 252.800,260.149 252.502,260.451 252.139 C 260.753 251.775,260.961 251.370,260.914 251.239 C 260.867 251.107,261.268 249.609,261.805 247.910 C 262.342 246.210,262.858 244.410,262.952 243.910 C 263.046 243.409,263.475 242.010,263.904 240.800 C 264.591 238.865,267.100 230.993,268.963 224.925 C 269.313 223.784,269.600 222.670,269.600 222.451 C 269.600 222.232,269.808 221.545,270.061 220.926 C 270.315 220.307,270.578 219.620,270.646 219.400 C 271.188 217.632,271.809 215.154,272.649 211.400 C 273.191 208.980,273.727 206.640,273.839 206.200 C 275.474 199.803,275.337 188.314,273.548 181.800 C 273.125 180.260,272.697 178.635,272.598 178.190 C 272.194 176.382,267.449 165.653,266.853 165.200 C 266.708 165.090,266.162 164.153,265.641 163.118 C 265.119 162.082,264.393 160.912,264.028 160.518 C 262.830 159.225,258.353 150.833,256.922 147.200 C 254.624 141.367,254.502 134.652,256.611 130.140 C 256.935 129.446,257.200 128.767,257.200 128.630 C 257.200 127.143,262.476 121.578,264.900 120.508 C 265.725 120.144,266.400 119.723,266.400 119.573 C 266.400 119.423,266.985 119.165,267.700 118.999 C 268.415 118.833,269.270 118.623,269.600 118.532 C 269.930 118.441,271.314 118.260,272.675 118.130 L 275.149 117.895 273.661 116.647 C 270.944 114.370,270.747 114.204,270.060 113.600 C 269.685 113.270,268.609 112.497,267.670 111.882 C 266.730 111.267,265.250 110.121,264.381 109.335 C 263.511 108.550,262.800 108.049,262.800 108.223 C 262.800 108.397,262.395 108.184,261.900 107.750 C 259.416 105.570,250.519 100.698,242.600 97.181 C 241.098 96.514,232.776 93.610,231.832 93.424 C 231.594 93.377,230.680 93.137,229.800 92.890 C 228.920 92.644,227.390 92.242,226.400 91.997 C 225.410 91.752,223.970 91.392,223.200 91.198 C 220.567 90.532,218.843 90.264,214.200 89.797 C 212.880 89.664,211.530 89.453,211.200 89.328 C 210.597 89.099,191.771 88.775,191.529 88.990 M297.382 147.700 C 297.502 148.415,297.692 149.540,297.806 150.200 C 298.674 155.262,297.587 170.609,295.780 178.800 C 295.658 179.350,295.472 180.250,295.366 180.800 C 295.259 181.350,294.879 182.700,294.521 183.800 C 294.162 184.900,293.891 185.842,293.917 185.893 C 293.944 185.944,293.709 186.598,293.396 187.347 C 293.084 188.096,292.725 189.290,292.600 190.001 C 292.475 190.712,292.108 191.804,291.786 192.427 C 291.464 193.050,291.200 193.751,291.200 193.984 C 291.200 194.218,290.858 195.172,290.440 196.104 C 290.022 197.037,289.467 198.430,289.207 199.200 C 288.946 199.970,287.655 203.660,286.338 207.400 C 285.021 211.140,283.893 214.380,283.833 214.600 C 283.772 214.820,283.515 215.507,283.261 216.126 C 283.008 216.745,282.800 217.426,282.800 217.639 C 282.800 218.058,281.551 221.864,280.779 223.800 C 279.989 225.778,276.879 234.733,275.569 238.800 C 274.896 240.890,274.087 243.167,273.772 243.860 C 273.458 244.554,273.200 245.307,273.200 245.534 C 273.200 245.762,272.990 246.455,272.734 247.074 C 272.477 247.693,272.244 248.290,272.216 248.400 C 271.998 249.266,271.073 251.952,270.772 252.600 C 270.567 253.040,270.142 254.210,269.828 255.200 C 269.514 256.190,268.421 259.340,267.399 262.200 C 266.378 265.060,265.096 268.840,264.550 270.600 C 264.004 272.360,263.448 274.070,263.313 274.400 C 263.179 274.730,263.051 275.090,263.028 275.200 C 263.006 275.310,262.845 275.625,262.670 275.900 C 262.496 276.175,262.474 276.400,262.622 276.400 C 262.771 276.400,262.597 276.850,262.237 277.400 C 261.876 277.950,261.675 278.400,261.789 278.400 C 261.903 278.400,261.634 279.345,261.190 280.500 C 259.472 284.974,255.922 295.655,256.095 295.829 C 256.196 295.929,256.739 295.649,257.302 295.206 C 257.865 294.763,258.437 294.400,258.572 294.400 C 258.842 294.400,262.080 292.348,262.400 291.974 C 262.510 291.845,263.770 290.959,265.200 290.005 C 266.630 289.050,268.444 287.714,269.231 287.035 C 270.018 286.356,271.531 285.080,272.593 284.200 C 274.905 282.284,282.112 275.091,284.032 272.783 C 284.784 271.879,285.850 270.620,286.400 269.987 C 286.950 269.354,287.850 268.180,288.400 267.378 C 288.950 266.576,289.715 265.577,290.100 265.160 C 290.485 264.742,290.800 264.263,290.800 264.096 C 290.800 263.929,291.250 263.307,291.800 262.713 C 292.350 262.120,292.800 261.532,292.800 261.407 C 292.800 261.281,293.752 259.679,294.915 257.846 C 299.075 251.288,306.400 235.069,306.400 232.415 C 306.400 232.020,306.674 231.042,307.009 230.241 C 307.344 229.439,307.690 228.292,307.778 227.692 C 307.987 226.272,308.286 224.978,308.759 223.441 C 308.970 222.759,309.239 221.390,309.358 220.400 C 309.477 219.410,309.656 218.150,309.755 217.600 C 310.787 211.905,310.957 209.587,310.978 201.000 C 310.997 192.622,310.764 187.906,310.188 185.000 C 310.101 184.560,309.932 183.390,309.812 182.400 C 309.518 179.970,309.244 178.504,308.730 176.600 C 308.492 175.720,308.267 174.730,308.229 174.400 C 307.782 170.489,303.424 158.495,299.690 150.900 C 297.310 146.061,297.045 145.694,297.382 147.700 M98.000 155.533 C 98.000 155.937,97.865 156.402,97.700 156.567 C 97.535 156.732,97.389 156.987,97.376 157.133 C 97.362 157.280,97.040 158.115,96.659 158.988 C 95.024 162.741,91.849 173.092,91.381 176.200 C 91.024 178.564,90.702 180.230,90.556 180.469 C 90.465 180.617,90.295 181.607,90.177 182.669 C 90.059 183.731,89.887 184.870,89.794 185.200 C 88.777 188.821,88.760 213.118,89.773 214.756 C 89.888 214.942,90.077 215.882,90.194 216.847 C 90.311 217.811,90.477 219.050,90.563 219.600 C 90.649 220.150,90.842 221.406,90.993 222.392 C 91.143 223.377,91.358 224.332,91.471 224.514 C 91.583 224.697,91.738 225.240,91.815 225.723 C 92.052 227.212,92.211 227.781,92.535 228.300 C 92.707 228.575,92.748 228.800,92.627 228.800 C 92.506 228.800,92.654 229.475,92.957 230.300 C 93.602 232.058,94.539 235.400,94.387 235.400 C 94.329 235.400,94.643 236.120,95.084 237.000 C 95.525 237.880,96.015 239.140,96.172 239.800 C 96.330 240.460,96.983 242.035,97.623 243.300 C 98.264 244.565,98.708 245.600,98.611 245.600 C 98.360 245.600,104.295 257.100,104.804 257.600 C 104.916 257.710,105.362 258.475,105.795 259.300 C 106.228 260.125,106.721 260.800,106.891 260.800 C 107.061 260.800,107.200 261.025,107.200 261.300 C 107.201 261.575,107.606 262.278,108.100 262.863 C 108.595 263.447,109.270 264.332,109.600 264.829 C 109.930 265.326,110.515 266.062,110.900 266.466 C 111.285 266.870,111.518 267.200,111.418 267.200 C 111.318 267.200,111.633 267.633,112.118 268.162 C 112.603 268.691,113.183 269.366,113.406 269.662 C 115.837 272.879,124.148 281.616,126.944 283.892 C 127.277 284.162,128.595 285.230,129.874 286.265 C 131.153 287.301,132.260 288.294,132.333 288.474 C 132.407 288.653,132.682 288.800,132.944 288.800 C 133.207 288.800,133.708 289.115,134.056 289.500 C 134.751 290.267,144.960 296.861,145.478 296.878 C 145.655 296.883,146.250 297.205,146.800 297.592 C 147.626 298.174,151.140 300.000,151.435 300.000 C 151.556 300.000,148.220 290.488,147.484 288.733 C 147.145 287.926,146.973 287.161,147.101 287.033 C 147.229 286.905,147.123 286.800,146.867 286.800 C 146.610 286.800,146.433 286.665,146.473 286.500 C 146.571 286.095,145.501 282.651,145.198 282.400 C 144.951 282.195,143.406 277.949,142.796 275.800 C 142.609 275.140,141.799 272.890,140.996 270.800 C 140.193 268.710,139.139 265.830,138.654 264.400 C 138.168 262.970,137.553 261.407,137.286 260.926 C 137.019 260.446,136.800 259.719,136.800 259.311 C 136.800 258.903,136.445 257.873,136.012 257.023 C 135.578 256.172,134.934 254.559,134.581 253.438 C 134.227 252.317,133.832 251.130,133.704 250.800 C 133.575 250.470,133.438 250.110,133.400 250.000 C 133.287 249.673,132.777 248.337,131.873 246.000 C 131.405 244.790,130.972 243.478,130.911 243.084 C 130.850 242.691,130.462 241.701,130.049 240.884 C 129.636 240.068,129.165 238.770,129.003 238.000 C 128.840 237.230,128.485 236.150,128.214 235.600 C 127.942 235.050,127.406 233.700,127.023 232.600 C 126.640 231.500,125.782 229.160,125.116 227.400 C 124.450 225.640,123.642 223.390,123.321 222.400 C 122.999 221.410,122.470 220.105,122.146 219.500 C 121.821 218.895,121.646 218.400,121.757 218.400 C 121.868 218.400,121.676 217.725,121.330 216.900 C 120.244 214.309,117.921 207.823,117.893 207.300 C 117.879 207.025,117.717 206.800,117.533 206.800 C 117.350 206.800,117.233 206.665,117.273 206.500 C 117.371 206.095,116.301 202.651,115.998 202.400 C 115.751 202.195,114.206 197.949,113.596 195.800 C 113.409 195.140,112.602 192.890,111.803 190.800 C 111.005 188.710,109.987 185.920,109.542 184.600 C 109.097 183.280,108.502 181.660,108.220 181.000 C 107.938 180.340,107.396 178.900,107.016 177.800 C 105.431 173.207,104.777 171.367,104.530 170.800 C 104.387 170.470,104.238 170.110,104.200 170.000 C 104.162 169.890,104.018 169.530,103.879 169.200 C 103.451 168.179,101.833 163.811,101.805 163.600 C 101.779 163.405,99.923 158.104,99.109 155.900 C 98.647 154.650,98.000 154.436,98.000 155.533 M201.600 210.205 C 201.600 210.538,201.433 211.123,201.228 211.505 C 201.024 211.887,200.191 214.270,199.377 216.800 C 198.563 219.330,197.651 221.967,197.349 222.660 C 197.047 223.354,196.800 224.179,196.800 224.494 C 196.800 224.809,196.675 225.192,196.522 225.345 C 196.369 225.498,196.204 225.843,196.157 226.112 C 196.040 226.768,194.799 230.296,194.135 231.860 C 193.841 232.554,193.600 233.336,193.600 233.600 C 193.600 233.864,193.344 234.646,193.031 235.340 C 192.293 236.976,190.000 243.854,190.000 244.433 C 190.000 244.678,189.712 245.536,189.359 246.340 C 188.248 248.872,188.078 249.334,187.200 252.200 C 186.728 253.740,186.176 255.360,185.973 255.800 C 185.574 256.665,183.790 261.848,183.220 263.800 C 183.027 264.460,182.494 265.987,182.035 267.194 C 181.576 268.401,181.200 269.642,181.200 269.951 C 181.200 270.260,180.856 271.252,180.434 272.156 C 180.013 273.060,179.116 275.510,178.440 277.600 C 176.828 282.586,176.058 284.822,175.618 285.800 C 175.420 286.240,174.689 288.400,173.993 290.600 C 173.298 292.800,172.463 295.192,172.139 295.915 C 171.814 296.638,171.473 297.538,171.381 297.915 C 171.082 299.139,169.090 304.979,168.712 305.739 C 168.510 306.145,168.417 306.550,168.505 306.638 C 168.716 306.849,174.716 308.402,176.004 308.579 C 176.556 308.655,177.746 308.916,178.649 309.159 C 179.552 309.402,181.170 309.706,182.245 309.835 C 183.320 309.963,184.650 310.131,185.200 310.207 C 192.443 311.212,205.203 311.523,209.304 310.794 C 210.237 310.628,212.260 310.380,213.800 310.242 C 215.340 310.105,216.870 309.934,217.200 309.862 C 217.530 309.790,218.700 309.594,219.800 309.427 C 223.069 308.929,231.754 306.770,232.297 306.320 C 232.574 306.090,232.800 306.010,232.800 306.141 C 232.800 306.273,233.295 306.188,233.900 305.953 C 234.505 305.719,235.446 305.442,235.991 305.339 C 237.260 305.099,237.509 304.838,236.854 304.434 C 236.567 304.256,236.359 304.041,236.392 303.955 C 236.467 303.760,236.138 302.836,234.912 299.800 C 234.379 298.480,233.876 297.130,233.794 296.800 C 233.516 295.688,232.855 293.820,231.176 289.400 C 230.256 286.980,229.242 284.190,228.922 283.200 C 228.602 282.210,228.108 280.859,227.824 280.198 C 227.539 279.538,227.178 278.413,227.022 277.698 C 226.865 276.984,226.571 276.400,226.368 276.400 C 226.166 276.400,226.036 276.265,226.079 276.100 C 226.176 275.733,225.695 274.210,224.973 272.600 C 224.538 271.630,222.786 266.750,222.245 265.000 C 222.177 264.780,222.010 264.330,221.874 264.000 C 221.324 262.663,219.836 258.574,219.763 258.200 C 219.720 257.980,219.200 256.540,218.607 255.000 C 218.014 253.460,217.482 252.020,217.426 251.800 C 217.369 251.580,217.115 250.893,216.861 250.274 C 216.608 249.655,216.399 248.935,216.398 248.674 C 216.396 248.413,216.119 247.670,215.781 247.023 C 215.273 246.048,213.476 241.257,213.072 239.800 C 213.011 239.580,212.766 239.040,212.528 238.600 C 212.290 238.160,211.960 237.176,211.796 236.413 C 211.632 235.650,211.335 234.750,211.135 234.413 C 210.796 233.841,208.692 228.102,207.317 224.000 C 206.985 223.010,206.463 221.633,206.157 220.940 C 205.851 220.246,205.600 219.421,205.600 219.106 C 205.600 218.791,205.465 218.398,205.300 218.233 C 205.135 218.068,204.994 217.813,204.988 217.667 C 204.981 217.520,204.446 216.050,203.800 214.400 C 202.556 211.223,202.528 211.137,202.450 210.200 C 202.384 209.414,201.600 209.419,201.600 210.205 " stroke="none" fill="#34343c" fill-rule="evenodd"></path><path id="path1" d="M264.497 109.433 C 264.627 109.644,265.591 110.432,266.637 111.184 C 267.684 111.935,268.433 112.378,268.303 112.167 C 268.173 111.956,267.209 111.168,266.163 110.416 C 265.116 109.665,264.367 109.222,264.497 109.433 M278.975 278.100 L 277.800 279.400 279.100 278.225 C 279.815 277.579,280.400 276.994,280.400 276.925 C 280.400 276.616,280.070 276.888,278.975 278.100 " stroke="none" fill="#343c3c" fill-rule="evenodd"></path><path id="path2" d="" stroke="none" fill="#38343c" fill-rule="evenodd"></path><path id="path3" d="" stroke="none" fill="#38343c" fill-rule="evenodd"></path><path id="path4" d="" stroke="none" fill="#38343c" fill-rule="evenodd"></path></g></svg>